<svg xmlns="http://www.w3.org/2000/svg" viewBox="0 0 128 128" fill="none">
  <defs>
    <linearGradient id="g" x1="20" y1="10" x2="108" y2="118" gradientUnits="userSpaceOnUse">
      <stop stop-color="#14d99a"/>
      <stop offset="1" stop-color="#059669"/>
    </linearGradient>
    <linearGradient id="gold" x1="64" y1="28" x2="64" y2="52" gradientUnits="userSpaceOnUse">
      <stop stop-color="#ffe566"/>
      <stop offset="1" stop-color="#f5c518"/>
    </linearGradient>
  </defs>
  <rect width="128" height="128" rx="28" fill="#06120c"/>
  <path d="M38 36c0-4 3-7 7-7h38c4 0 7 3 7 7v6l-8 22H46L38 42V36z" fill="url(#g)" opacity=".95"/>
  <path d="M46 64 38 92c-1 3 1 6 4 6h44c3 0 5-3 4-6l-8-28H54l-8 28z" fill="url(#g)"/>
  <ellipse cx="64" cy="40" rx="14" ry="5" fill="url(#gold)" opacity=".9"/>
  <path d="M52 36h24v4c0 2-2 4-4 4H56c-2 0-4-2-4-4v-4z" fill="#06120c" opacity=".25"/>
</svg>
